<svg width="27" height="28" viewBox="0 0 27 28" fill="none" xmlns="http://www.w3.org/2000/svg">
<path fill-rule="evenodd" clip-rule="evenodd" d="M3.375 9.43495C2.75625 9.43495 2.25 8.92137 2.25 8.29365C2.25 7.66593 2.75625 7.15234 3.375 7.15234H23.625C24.2437 7.15234 24.75 7.66593 24.75 8.29365C24.75 8.92137 24.2437 9.43495 23.625 9.43495H3.375ZM2.25 14.0002C2.25 14.6279 2.75625 15.1415 3.375 15.1415H23.625C24.2437 15.1415 24.75 14.6279 24.75 14.0002C24.75 13.3725 24.2437 12.8589 23.625 12.8589H3.375C2.75625 12.8589 2.25 13.3725 2.25 14.0002ZM2.25 19.7067C2.25 20.3344 2.75625 20.848 3.375 20.848H23.625C24.2437 20.848 24.75 20.3344 24.75 19.7067C24.75 19.079 24.2437 18.5654 23.625 18.5654H3.375C2.75625 18.5654 2.25 19.079 2.25 19.7067Z" fill="#282828"/>
</svg>
