<svg width="27" height="27" viewBox="0 0 27 27" fill="none" xmlns="http://www.w3.org/2000/svg">
<path d="M20.5876 6.42379C20.3774 6.21313 20.092 6.09475 19.7944 6.09475C19.4969 6.09475 19.2115 6.21313 19.0013 6.42379L13.5001 11.9138L7.99881 6.41254C7.78862 6.20188 7.50327 6.0835 7.20568 6.0835C6.9081 6.0835 6.62274 6.20188 6.41256 6.41254C5.97381 6.85129 5.97381 7.56004 6.41256 7.99879L11.9138 13.5L6.41256 19.0013C5.97381 19.44 5.97381 20.1488 6.41256 20.5875C6.85131 21.0263 7.56006 21.0263 7.99881 20.5875L13.5001 15.0863L19.0013 20.5875C19.4401 21.0263 20.1488 21.0263 20.5876 20.5875C21.0263 20.1488 21.0263 19.44 20.5876 19.0013L15.0863 13.5L20.5876 7.99879C21.0151 7.57129 21.0151 6.85129 20.5876 6.42379Z" fill="#282828"/>
</svg>
